<?xml version="1.0" encoding="utf-8"?>
<!-- Generator: Adobe Illustrator 24.1.2, SVG Export Plug-In . SVG Version: 6.00 Build 0)  -->
<svg version="1.1" id="Layer_1" xmlns="http://www.w3.org/2000/svg" xmlns:xlink="http://www.w3.org/1999/xlink" x="0px" y="0px"
	 viewBox="0 0 512 512" style="enable-background:new 0 0 512 512;" xml:space="preserve">
<style type="text/css">
	.st0{fill:#FFFFFF;}
</style>
<g id="XMLID_806_">
	<g id="XMLID_386_">
		<path id="XMLID_389_" class="st0" d="M508,273.7c-4.6-46.2-25.3-89.8-58.2-122.7c-28.1-28.1-62.6-46.2-98.8-54.2V71.3
			c14.8-3.7,25.8-17.1,25.8-33c0-18.7-15.3-34-34-34h-72c-18.7,0-34,15.3-34,34c0,15.9,11,29.3,25.8,33v25.5
			c-36.1,8.1-70.4,26.1-98.5,54.2c-6.1,6.1-11.8,12.6-17,19.3c-0.3,0-0.5,0-0.8,0H75.2c-5.5,0-10,4.5-10,10c0,5.5,4.5,10,10,10h58.4
			c-7.3,12.3-13.2,25.2-17.7,38.4H7c-5.5,0-10,4.5-10,10c0,5.5,4.5,10,10,10h103.2c-2.9,12.7-4.5,25.5-5,38.4H61
			c-5.5,0-10,4.5-10,10s4.5,10,10,10h44.5c0.8,12.9,2.9,25.8,6.2,38.4H47c-5.5,0-10,4.5-10,10s4.5,10,10,10h71.2
			c9.8,26,25.1,50.3,46,71.1c32.9,32.9,76.6,53.6,122.9,58.2c6.6,0.7,13.2,1,19.8,1c39,0,77.5-11.3,110.2-32.6
			c4.6-3,5.9-9.2,2.9-13.8c-3-4.6-9.2-5.9-13.8-2.9c-71.6,46.6-167.4,36.5-227.9-24c-71-71-71-186.4,0-257.4c71-71,186.4-71,257.4,0
			c60.4,60.4,70.5,156.2,24.1,227.7c-3,4.6-1.7,10.8,2.9,13.8c4.6,3,10.8,1.7,13.8-2.9C501.4,365.4,512.5,319.2,508,273.7z
			 M256.9,38.3c0-7.7,6.3-14,14-14h72c7.7,0,14,6.3,14,14s-6.3,14-14,14h-1.8h-68.4h-1.8C263.1,52.3,256.9,46,256.9,38.3z
			 M282.6,93.3v-21h48.4v21C315,91.3,298.7,91.4,282.6,93.3z"/>
		<path id="XMLID_391_" class="st0" d="M442.8,419.5c-2.6,0-5.2,1.1-7.1,2.9c-1.9,1.9-2.9,4.4-2.9,7.1s1.1,5.2,2.9,7.1
			c1.9,1.9,4.4,2.9,7.1,2.9c2.6,0,5.2-1.1,7.1-2.9c1.9-1.9,2.9-4.4,2.9-7.1s-1.1-5.2-2.9-7.1C448,420.6,445.4,419.5,442.8,419.5z"/>
		<path id="XMLID_394_" class="st0" d="M307,138.6c-85.5,0-155.1,69.6-155.1,155.1S221.5,448.9,307,448.9s155.1-69.6,155.1-155.1
			S392.5,138.6,307,138.6z M307,428.9c-74.5,0-135.1-60.6-135.1-135.1S232.5,158.6,307,158.6s135.1,60.6,135.1,135.1
			S381.5,428.9,307,428.9z"/>
		<path id="XMLID_397_" class="st0" d="M370.3,216.3l-49.5,49.5c-4.1-2-8.8-3.2-13.7-3.2c-4.9,0-9.6,1.2-13.7,3.2l-22.2-22.2
			c-3.9-3.9-10.2-3.9-14.1,0c-3.9,3.9-3.9,10.2,0,14.1l22.2,22.2c-2,4.1-3.2,8.8-3.2,13.7c0,17.1,13.9,31.1,31.1,31.1
			c17.1,0,31.1-13.9,31.1-31.1c0-4.9-1.2-9.6-3.2-13.7l48.1-48.1l0,0l1.5-1.5c3.9-3.9,3.9-10.2,0-14.1S374.2,212.4,370.3,216.3z
			 M307,304.8c-6.1,0-11.1-5-11.1-11.1c0-6.1,5-11.1,11.1-11.1s11.1,5,11.1,11.1C318.1,299.8,313.1,304.8,307,304.8z"/>
		<path id="XMLID_398_" class="st0" d="M413.9,283.9h-9.3c-5.5,0-10,4.5-10,10c0,5.5,4.5,10,10,10h9.3c5.5,0,10-4.5,10-10
			C423.9,288.3,419.4,283.9,413.9,283.9z"/>
		<path id="XMLID_399_" class="st0" d="M209.3,283.6h-9.3c-5.5,0-10,4.5-10,10s4.5,10,10,10h9.3c5.5,0,10-4.5,10-10
			S214.9,283.6,209.3,283.6z"/>
		<path id="XMLID_400_" class="st0" d="M307.1,206.1c5.5,0,10-4.5,10-10v-9.3c0-5.5-4.5-10-10-10s-10,4.5-10,10v9.3
			C297.1,201.6,301.6,206.1,307.1,206.1z"/>
		<path id="XMLID_424_" class="st0" d="M306.9,381.4c-5.5,0-10,4.5-10,10v9.3c0,5.5,4.5,10,10,10c5.5,0,10-4.5,10-10v-9.3
			C316.9,385.9,312.4,381.4,306.9,381.4z"/>
		<path id="XMLID_425_" class="st0" d="M7,345.4c-2.6,0-5.2,1.1-7.1,2.9s-2.9,4.4-2.9,7.1c0,2.6,1.1,5.2,2.9,7.1s4.4,2.9,7.1,2.9
			s5.2-1.1,7.1-2.9c1.9-1.9,2.9-4.4,2.9-7.1s-1.1-5.2-2.9-7.1C12.2,346.5,9.6,345.4,7,345.4z"/>
	</g>
</g>
<rect x="23.2" y="266.3" transform="matrix(0.7918 0.6108 -0.6108 0.7918 237.2264 -122.2875)" class="st0" width="549.6" height="41"/>
</svg>
