<svg id="Слой_1" data-name="Слой 1" xmlns="http://www.w3.org/2000/svg" viewBox="0 0 20 24"><defs><style>.cls-1{fill:#ff3962;fill-rule:evenodd;}</style></defs><path class="cls-1" d="M11,2a1,1,0,0,0-1,1V4h4V3a1,1,0,0,0-1-1Zm5,2V3a3,3,0,0,0-3-3H11A3,3,0,0,0,8,3V4H3A1,1,0,0,0,3,6h.1L4.81,21.33a3,3,0,0,0,3,2.67h8.42a3,3,0,0,0,3-2.67L20.9,6H21a1,1,0,0,0,0-2Zm2.88,2H5.12L6.8,21.11a1,1,0,0,0,1,.89h8.42a1,1,0,0,0,1-.89ZM10,9a1,1,0,0,1,1,1v8a1,1,0,0,1-2,0V10A1,1,0,0,1,10,9Zm4,0a1,1,0,0,1,1,1v8a1,1,0,0,1-2,0V10A1,1,0,0,1,14,9Z" transform="translate(-2)"/></svg>